<?xml version="1.0" encoding="utf-8"?>
<!-- Generator: Adobe Illustrator 19.0.0, SVG Export Plug-In . SVG Version: 6.00 Build 0)  -->
<svg version="1.1" id="Capa_1" xmlns="http://www.w3.org/2000/svg" xmlns:xlink="http://www.w3.org/1999/xlink" x="0px" y="0px"
	 viewBox="0 0 218.3 79.8" style="enable-background:new 0 0 218.3 79.8;" xml:space="preserve">
<style type="text/css">
	.st0{fill:#FF0000;}
	.st1{fill:#010002;}
	.st2{fill:#FFFFFF;}
</style>
<text id="XMLID_1_" transform="matrix(1 0 0 1 297.6401 420.9452)" style="fill:#211915; font-family:'MyriadPro-Regular'; font-size:12px;">instituto-superior-de-gastronomia-cumbre-logo</text>
<g id="XMLID_2_">
	<circle id="XMLID_20_" class="st0" cx="39.9" cy="39.9" r="39.9"/>
	<g id="XMLID_4_">
		<path id="XMLID_18_" class="st1" d="M96.4,40L96.4,40c0-5.5,4.1-10,10.1-10c3.6,0,5.8,1.2,7.6,3l-2.7,3.1c-1.5-1.4-3-2.2-4.9-2.2
			c-3.3,0-5.6,2.7-5.6,6v0.1c0,3.3,2.3,6.1,5.6,6.1c2.2,0,3.6-0.9,5.1-2.3l2.7,2.7c-2,2.1-4.2,3.4-7.9,3.4
			C100.6,49.9,96.4,45.5,96.4,40z"/>
		<path id="XMLID_16_" class="st1" d="M118.4,41.3v-11h4.2v10.9c0,3.1,1.6,4.8,4.2,4.8c2.6,0,4.2-1.6,4.2-4.6v-11h4.2v10.9
			c0,5.8-3.3,8.7-8.5,8.7C121.5,49.8,118.4,47,118.4,41.3z"/>
		<path id="XMLID_14_" class="st1" d="M139.3,30.3h4.6l5.1,8.2l5.1-8.2h4.6v19.3h-4.2V37l-5.4,8.2h-0.1l-5.4-8.2v12.5h-4.2V30.3z"/>
		<path id="XMLID_10_" class="st1" d="M162.8,30.3h9c2.2,0,3.9,0.6,5,1.7c0.9,0.9,1.3,2,1.3,3.3v0.1c0,2.2-1.2,3.4-2.5,4.2
			c2.2,0.9,3.6,2.1,3.6,4.7v0.1c0,3.5-2.9,5.3-7.2,5.3h-9.2V30.3z M170.8,38.1c1.9,0,3.1-0.6,3.1-2V36c0-1.3-1-2-2.8-2h-4.2v4.1
			H170.8z M172,45.8c1.9,0,3-0.7,3-2.1v-0.1c0-1.3-1-2.1-3.1-2.1h-4.9v4.2H172z"/>
		<path id="XMLID_7_" class="st1" d="M183.3,30.3h8.8c2.5,0,4.4,0.7,5.6,2c1.1,1.1,1.7,2.6,1.7,4.4v0.1c0,3.1-1.7,5.1-4.1,6l4.7,6.9
			h-5l-4.1-6.2h-0.1h-3.3v6.2h-4.2V30.3z M191.9,39.6c2.1,0,3.3-1.1,3.3-2.7v-0.1c0-1.8-1.3-2.8-3.3-2.8h-4.2v5.5H191.9z"/>
		<path id="XMLID_5_" class="st1" d="M203.6,30.3h14.5V34h-10.3v3.9h9.1v3.8h-9.1v4h10.5v3.8h-14.7V30.3z"/>
	</g>
	<path id="XMLID_3_" class="st2" d="M71.3,52.2C62.9,45,53.6,36.5,47,28.3c0-0.1-0.1-0.1-0.2-0.1c-0.1,0-0.2,0-0.2,0.1l-0.2,0.2
		c0,0-0.1,0.1-0.1,0.1c-1.5-2.6-2.6-4.7-3.3-6.3c-1.2-2.4-1.8-3.8-2.9-3.8c-1.2,0-2.7,1.8-6.4,6.3c-4.4,5.4-11.8,14.4-25.1,27.9
		C8.2,53,8,53.3,8,53.6c0,0.4,0.3,0.7,0.7,0.7c0.3,0,0.6-0.3,0.7-0.3l18.2-15.4c0.4,1.2-1.4,4.6-2.7,7.1c-1.5,2.8-2,3.9-1.7,4.4
		c0.1,0.1,0.2,0.2,0.4,0.2l0,0c1.1,0,5.3-3.5,22.6-20.8c5.4,8.7,12.7,16.4,24.1,24.7c0,0,0.7,0.5,1.4-0.4
		C72.2,53,71.3,52.2,71.3,52.2z"/>
</g>
</svg>
