<?xml version="1.0" encoding="UTF-8"?>
<!DOCTYPE svg PUBLIC "-//W3C//DTD SVG 1.1//EN" "http://www.w3.org/Graphics/SVG/1.1/DTD/svg11.dtd">
<!-- Creator: CorelDRAW X7 -->
<svg xmlns="http://www.w3.org/2000/svg" xml:space="preserve" width="148px" height="45px" version="1.1" style="shape-rendering:geometricPrecision; text-rendering:geometricPrecision; image-rendering:optimizeQuality; fill-rule:evenodd; clip-rule:evenodd"
viewBox="0 0 81795 24881"
 xmlns:xlink="http://www.w3.org/1999/xlink">
 <defs>
  <style type="text/css">
   <![CDATA[
    .fil0 {fill:none}
    .fil3 {fill:#FEFEFE}
    .fil4 {fill:#BDBFC1}
    .fil1 {fill:#373435}
    .fil2 {fill:#1A5493}
   ]]>
  </style>
 </defs>
 <g id="Capa_x0020_1">
  <metadata id="CorelCorpID_0Corel-Layer"/>
  <rect class="fil0" width="81795" height="24881"/>
  <g id="_2442925354432">
   <path class="fil1" d="M21179 14901l4105 0c102,0 179,-22 231,-63 52,-42 95,-115 127,-222l160 0 0 1582 -160 0c-32,-108 -75,-181 -127,-223 -52,-41 -129,-63 -231,-63l-5880 0 0 -147c117,-30 198,-69 243,-116 45,-48 68,-118 68,-212l0 -5184c0,-94 -23,-164 -68,-212 -45,-48 -126,-87 -243,-117l0 -147 2086 0 0 147c-117,28 -197,65 -242,115 -45,50 -69,120 -69,214l0 4648zm10562 -561l-3015 0 -455 866c-62,121 -93,214 -93,283 0,134 110,226 329,276l0 147 -2211 0 0 -147c130,-24 230,-66 299,-125 68,-60 147,-177 234,-350l2458 -4709c79,-151 117,-270 117,-361 0,-138 -93,-236 -284,-296l0 -147 2370 0 0 147c-194,51 -289,140 -289,266 0,86 30,185 92,296l2544 4723c109,201 202,337 284,411 82,73 191,121 328,145l0 147 -2467 0 0 -147c215,-33 322,-125 322,-279 0,-64 -33,-158 -98,-280l-465 -866zm-418 -837l-1073 -2167 -1093 2167 2166 0zm5347 -1791l0 3725c0,94 23,164 69,212 45,47 125,86 242,116l0 147 -1956 0 0 -147c117,-30 198,-69 243,-116 45,-48 68,-118 68,-212l0 -5189c0,-90 -23,-159 -68,-207 -45,-48 -126,-87 -243,-117l0 -147 2268 0 0 147c-140,33 -209,102 -209,208 0,72 46,150 136,237l3702 3515 0 -3636c0,-90 -23,-159 -69,-207 -45,-48 -125,-87 -242,-117l0 -147 1956 0 0 147c-117,30 -198,69 -243,117 -45,48 -68,117 -68,207l0 5189c0,94 23,164 68,212 45,47 126,86 243,116l0 147 -2103 0 0 -147c137,-27 206,-92 206,-193 0,-60 -81,-164 -239,-314l-3761 -3546zm13530 2099l933 1278 -127 82c-92,-79 -168,-117 -226,-117 -59,0 -224,70 -495,215 -561,295 -1034,496 -1419,599 -384,103 -841,155 -1370,155 -1055,0 -1921,-230 -2598,-688 -398,-267 -712,-598 -941,-994 -264,-454 -396,-952 -396,-1499 0,-744 237,-1389 710,-1938 712,-825 1789,-1237 3230,-1237 529,0 984,51 1364,153 377,101 852,302 1420,601 271,141 436,210 495,210 58,0 134,-38 226,-116l127 81 -933 1280 -132 -81c7,-48 10,-88 10,-121 0,-86 -40,-167 -122,-244 -82,-77 -227,-169 -438,-276 -578,-299 -1192,-448 -1838,-448 -766,0 -1376,177 -1831,528 -536,411 -804,947 -804,1611 0,664 268,1200 804,1611 455,351 1065,528 1831,528 646,0 1260,-151 1838,-450 211,-107 356,-199 438,-276 82,-76 122,-158 122,-245 0,-32 -3,-72 -10,-116l132 -86zm3709 -594l0 1684 4290 0c99,0 174,-22 226,-63 52,-42 95,-115 127,-222l160 0 0 1582 -160 0c-32,-108 -75,-181 -127,-223 -52,-41 -127,-63 -226,-63l-6065 0 0 -147c117,-30 197,-69 242,-116 45,-48 69,-118 69,-212l0 -5184c0,-94 -24,-164 -69,-212 -45,-48 -125,-87 -242,-117l0 -147 5945 0c99,0 174,-21 226,-62 51,-43 95,-117 127,-223l160 0 0 1582 -160 0c-32,-105 -76,-179 -127,-222 -52,-41 -127,-63 -224,-63l-4172 0 0 1453 2707 0c97,0 173,-21 224,-62 52,-42 96,-115 127,-223l161 0 0 1546 -161 0c-31,-105 -75,-178 -127,-221 -51,-43 -127,-65 -224,-65l-2707 0zm7620 1684l4105 0c102,0 179,-22 230,-63 52,-42 96,-115 127,-222l161 0 0 1582 -161 0c-31,-108 -75,-181 -127,-223 -51,-41 -128,-63 -230,-63l-5880 0 0 -147c117,-30 197,-69 242,-116 45,-48 69,-118 69,-212l0 -5184c0,-94 -24,-164 -69,-212 -45,-48 -125,-87 -242,-117l0 -147 2086 0 0 147c-117,28 -198,65 -243,115 -45,50 -68,120 -68,214l0 4648zm8887 -5234c1166,0 2090,290 2774,868 722,605 1083,1389 1083,2348 0,587 -174,1136 -520,1647 -677,995 -1786,1493 -3327,1493 -1159,0 -2078,-290 -2762,-868 -366,-310 -643,-679 -832,-1111 -167,-380 -251,-782 -251,-1202 0,-615 173,-1176 515,-1686 657,-975 1764,-1471 3320,-1489zm5 1039c-641,0 -1172,175 -1598,523 -505,411 -757,949 -757,1616 0,667 252,1205 757,1616 426,348 961,523 1608,523 645,0 1178,-175 1601,-523 252,-207 446,-460 580,-761 118,-266 177,-542 177,-828 0,-697 -252,-1244 -757,-1643 -430,-343 -966,-517 -1611,-523zm8347 83l0 4648c0,94 23,164 68,212 45,47 125,86 242,116l0 147 -2085 0 0 -147c116,-30 197,-69 242,-116 45,-48 68,-118 68,-212l0 -4648 -2065 0c-97,0 -173,20 -224,61 -52,40 -96,115 -127,224l-161 0 0 -1582 161 0c35,109 78,183 128,224 52,41 126,61 223,61l5590 0c101,0 178,-20 229,-61 52,-41 96,-115 127,-224l161 0 0 1582 -161 0c-31,-109 -75,-184 -127,-224 -51,-41 -128,-61 -229,-61l-2060 0z"/>
   <g>
    <path class="fil2" d="M3285 7392l2835 0 0 -1417 2835 0 0 1417 2834 0 0 -1417 2835 0 0 1417 0 10662c-106,2848 -3726,3678 -7087,5213 -3361,-1535 -7030,-2365 -7087,-5213l0 -10662 0 -1417 2835 0 0 1417z"/>
    <path class="fil3" d="M9706 22346c-290,120 -584,240 -880,363 -3213,-733 -6124,-2402 -8376,-4752l0 -1902c2267,3083 5542,5317 9256,6291z"/>
    <polygon class="fil3" points="6120,11644 6120,8809 3285,8809 3285,11644 3285,14479 3285,17314 3285,20148 6120,20148 6120,17314 6120,15896 8955,15896 8955,17314 8955,20148 11789,20148 11789,17314 11789,14479 11789,11644 11789,8809 8955,8809 8955,11644 8955,13062 6120,13062 "/>
    <g>
     <polygon class="fil4" points="3236,2542 3604,3393 4527,3480 3831,4093 4034,4997 3236,4525 2438,4997 2641,4093 1945,3480 2869,3393 "/>
     <polygon class="fil4" points="11838,2542 12206,3393 13129,3480 12433,4093 12636,4997 11838,4525 11041,4997 11243,4093 10547,3480 11471,3393 "/>
    </g>
    <polygon class="fil4" points="7537,1615 8007,2702 9187,2813 8297,3596 8557,4752 7537,4148 6518,4752 6777,3596 5888,2813 7068,2702 "/>
   </g>
  </g>
 </g>
</svg>
