<?xml version="1.0" encoding="UTF-8"?>
<!DOCTYPE svg PUBLIC "-//W3C//DTD SVG 1.1//EN" "http://www.w3.org/Graphics/SVG/1.1/DTD/svg11.dtd">
<!-- Creator: CorelDRAW X7 -->
<svg xmlns="http://www.w3.org/2000/svg" xml:space="preserve" width="17.2225mm" height="8.3074mm" version="1.1" style="shape-rendering:geometricPrecision; text-rendering:geometricPrecision; image-rendering:optimizeQuality; fill-rule:evenodd; clip-rule:evenodd"
viewBox="0 0 287 139"
 xmlns:xlink="http://www.w3.org/1999/xlink">
 <defs>
  <style type="text/css">
   <![CDATA[
    .fil0 {fill:#FEFEFE}
   ]]>
  </style>
 </defs>
 <g id="Capa_x0020_1">
  <metadata id="CorelCorpID_0Corel-Layer"/>
  <g id="_2096900378528">
   <path class="fil0" d="M44 49c-5,-1 -16,-1 -21,0 -6,1 -11,3 -16,6 -3,3 -8,8 -7,15 1,5 4,7 9,8 1,0 3,0 4,1 2,1 2,5 3,8 1,2 3,4 6,5 8,2 16,-6 19,-13 3,-8 4,-22 3,-30z"/>
   <path class="fil0" d="M23 0c-4,1 -5,2 -7,4 0,1 -1,3 -1,4 -1,4 1,6 -5,7 -4,1 -8,2 -9,7 -3,6 3,12 6,15 4,4 8,5 15,6 6,1 15,1 21,1 1,0 1,0 1,-1 0,0 0,-1 0,-1 0,-3 0,-5 0,-8 0,-9 -1,-19 -6,-26 -3,-4 -8,-9 -15,-8z"/>
   <path class="fil0" d="M49 44c6,1 15,1 21,0 6,-1 11,-3 15,-7 4,-2 9,-7 8,-14 -1,-4 -2,-5 -5,-7 -4,-2 -7,-1 -9,-2 -1,-1 -1,-2 -1,-4 -1,-4 -3,-8 -7,-9 -7,-2 -13,3 -15,6 -4,4 -6,9 -7,15 -1,7 -1,15 0,22z"/>
   <path class="fil0" d="M281 46c-2,0 -8,0 -10,1 -2,0 -5,-1 -5,0 -1,0 -1,2 0,2 1,1 5,0 6,2 0,2 0,14 0,17 0,7 0,14 0,22 0,3 0,8 0,11 -1,2 -2,2 -3,2 -1,0 -2,0 -3,1 0,0 -1,1 0,2 1,1 3,0 5,0 4,0 6,0 11,0 1,0 4,1 5,0 0,0 0,-1 0,-2 -1,-1 -5,0 -6,-3 0,-1 0,-8 0,-11l0 -33c0,-3 0,-8 0,-11zm-212 5c1,1 0,40 0,45 0,6 0,7 -6,7 -1,0 -1,0 -1,1 -1,3 1,2 3,2 4,0 8,0 11,0 2,0 10,1 11,0 1,0 1,-2 0,-3 -1,0 -3,0 -4,0 -3,0 -3,-2 -3,-4 -1,-5 0,-11 0,-16l0 -24c0,-2 0,-5 0,-8 3,0 9,0 12,1 7,2 6,10 7,11 1,1 2,0 2,0 1,-1 0,-3 0,-3 0,-4 0,-8 -1,-12l-51 0c0,0 -2,13 -2,14 1,1 1,2 2,1 2,-1 1,-9 8,-11 2,-1 11,-1 12,-1zm43 26c0,-1 0,-9 0,-10 -4,0 -8,0 -13,1 -1,0 -3,0 -2,2 1,2 5,0 6,3 0,1 0,15 0,18 0,3 0,7 0,9 0,4 -4,3 -6,4 -1,0 -1,2 1,2 2,0 3,0 5,0 3,0 6,0 9,0 1,0 8,1 9,0 1,-1 0,-2 -2,-2 -1,0 -2,0 -4,-1 -3,0 -3,-3 -3,-6 0,-6 0,-12 1,-18 2,-4 5,-10 9,-9 -1,2 -1,3 -1,5 1,2 3,3 5,3 4,0 5,-6 2,-9 -2,-3 -7,-3 -10,-1 -2,1 -3,2 -4,4 -1,2 -1,3 -2,5zm51 5c-1,1 -3,0 -4,0 -1,0 -2,1 -4,1 -2,0 -5,0 -8,0 -3,0 -4,0 -3,-4 1,-4 3,-8 8,-9 2,-1 4,-1 6,0 5,3 5,11 5,12zm-19 4c1,-1 21,-1 24,-1 2,0 3,1 3,0 0,-4 -1,-9 -3,-11 -6,-10 -22,-9 -29,-2 -5,6 -6,15 -4,23 2,6 8,11 16,12 16,1 20,-10 20,-11 -1,-1 -2,-2 -2,-1 -1,1 -1,2 -3,4 -3,3 -6,4 -11,4 -4,-1 -7,-3 -9,-6 -1,-2 -3,-8 -2,-11zm17 -39c-2,1 -4,3 -5,4l-8 8c0,1 -1,2 0,3 0,1 2,0 2,-1 4,-2 7,-4 11,-6 1,0 3,-2 4,-4 0,-2 -2,-4 -4,-4zm37 24c11,-2 10,21 8,27 -4,9 -14,6 -16,2 -1,-2 -1,-4 -1,-6l0 -13c0,-2 0,-3 1,-5 2,-2 4,-5 8,-5zm-9 2l0 -27c-1,0 -5,0 -6,0 -1,0 -8,0 -9,1 0,0 0,2 0,2 1,1 4,0 5,2 1,1 1,9 1,12l0 38c0,1 0,5 0,6 2,1 3,-1 4,-2 0,-1 1,-1 2,-1 1,-1 3,1 6,2 7,3 15,1 19,-4 9,-8 9,-29 -4,-34 -7,-3 -13,-1 -17,4 -1,1 -1,1 -1,1zm52 -3c4,-1 7,2 8,4 4,7 4,29 -6,30 -8,2 -10,-8 -10,-16 0,-6 0,-17 8,-18zm0 -3c-11,1 -18,10 -18,22 1,11 9,19 21,18 11,-1 18,-10 17,-22 0,-6 -2,-10 -5,-14 -4,-3 -9,-5 -15,-4z"/>
   <path class="fil0" d="M145 138l0 -19 5 0c1,0 3,0 3,1 1,1 1,2 1,4 0,2 0,4 -2,4l3 10 -2 0 -3 -9 -3 0 0 9 -2 0zm2 -11l2 0c2,0 2,0 3,-1 0,0 1,-1 1,-2 0,-2 -1,-3 -1,-3 0,-1 -1,-1 -2,-1l-3 0 0 7zm14 12c-2,0 -3,-1 -3,-2 -1,-1 -1,-2 -1,-4l0 -4c0,-1 0,-2 0,-3 1,-1 1,-1 2,-2 0,0 1,0 2,0 0,0 1,0 1,0 1,0 1,1 1,1 1,0 1,1 1,1 0,1 0,1 0,2 0,0 0,1 0,2l0 1 -5 0 0 2c0,2 0,3 0,3 0,1 1,1 2,1 0,0 1,0 1,0 1,-1 1,-2 1,-3l0 -1 1 0 0 1c0,2 0,3 0,3 -1,1 -2,2 -3,2zm-2 -9l4 0 0 -1c0,-1 0,-1 0,-1 0,-1 0,-1 0,-1 -1,-1 -1,-1 -1,-1 0,0 0,0 0,-1 -1,0 -1,0 -1,0 -1,0 -2,1 -2,1 0,1 0,2 0,3l0 1zm11 9c-1,0 -2,-1 -3,-2 0,0 -1,-1 -1,-2l2 -1c0,1 0,2 1,2 0,1 0,1 1,1 1,0 1,0 2,0 0,-1 0,-1 0,-2 0,0 0,0 0,0 0,-1 0,-2 -2,-3l-1 -1c-1,-1 -2,-1 -2,-2 0,0 0,-1 0,-2 0,-1 0,-2 1,-2 0,-1 1,-1 2,-1 1,0 2,0 2,1 1,1 1,2 1,3l-1 0c0,-1 0,-2 -1,-2 0,0 0,-1 -1,-1 -1,0 -1,0 -1,1 -1,0 -1,0 -1,1 0,0 0,1 0,1 1,1 1,1 1,1l2 2c1,0 1,1 1,1 0,0 1,0 1,1 0,0 0,0 1,1 0,0 0,1 0,1 0,1 -1,2 -1,3 -1,0 -2,1 -3,1zm9 -1c-1,0 -2,0 -2,0 0,-1 0,-2 0,-3l0 -10 -2 0 0 -1 2 0 0 -4 1 0 0 4 3 0 0 1 -3 0 0 10c0,1 0,1 1,2 0,0 0,0 1,0 0,0 0,0 1,0l0 1c-1,0 -1,0 -2,0zm6 1c-1,0 -1,-1 -2,-1 -1,-1 -1,-2 -1,-3 0,0 0,-1 0,-1 0,0 1,-1 1,-1 0,0 0,-1 0,-1 1,0 1,0 2,-1 0,0 1,0 1,0 0,-1 1,-1 2,-1l0 -1c0,-2 0,-2 0,-3 -1,0 -1,-1 -2,-1 -1,0 -2,1 -2,3l0 0 -2 0c0,0 0,0 0,0 0,-2 1,-3 1,-3 1,-1 2,-1 3,-1 1,0 2,0 3,1 0,1 1,2 1,4l0 7c0,1 0,2 0,2l-2 0 0 -2c0,1 -1,1 -1,2 -1,0 -1,1 -2,1zm1 -2c0,0 1,0 1,0 0,-1 1,-1 1,-2l0 -4c0,0 0,0 0,0 -1,0 -1,0 -1,1 0,0 -1,0 -1,0 0,0 -1,0 -1,0 0,0 0,1 0,1 0,0 0,0 -1,0 0,0 0,1 0,1 0,0 0,0 0,0 0,0 0,1 0,1 0,1 0,1 0,1 1,1 1,1 2,1zm8 2c0,0 -1,-1 -1,-1 -1,-1 -1,-2 -1,-2l0 -12 2 0 0 11c0,1 0,1 0,2 1,0 1,0 1,0 1,0 2,0 3,-1l0 -12 2 0 0 14 -2 0 0 -1c-1,1 -2,2 -4,2zm8 -1l0 -14 2 0 0 2c1,-1 1,-1 2,-1 0,-1 1,-1 2,-1 0,0 0,0 0,0l0 2c0,0 -1,0 -1,0 -1,0 -2,0 -3,1l0 11 -2 0zm10 1c-1,0 -1,-1 -2,-1 -1,-1 -1,-2 -1,-3 0,0 0,-1 0,-1 0,0 1,-1 1,-1 0,0 0,-1 0,-1 1,0 1,0 2,-1 0,0 1,0 1,0 1,-1 1,-1 2,-1l0 -1c0,-2 0,-2 0,-3 -1,0 -1,-1 -2,-1 -1,0 -2,1 -2,3l0 0 -2 0c0,0 0,0 0,0 0,-2 1,-3 1,-3 1,-1 2,-1 3,-1 1,0 2,0 3,1 0,1 1,2 1,4l0 7c0,1 0,2 0,2l-2 0 0 -2c0,1 -1,1 -1,2 -1,0 -1,1 -2,1zm1 -2c0,0 1,0 1,0 0,-1 1,-1 1,-2l0 -4c0,0 0,0 0,0 -1,0 -1,0 -1,1 0,0 -1,0 -1,0 0,0 0,0 -1,0 0,0 0,1 0,1 0,0 0,0 -1,0 0,0 0,1 0,1 0,0 0,0 0,0 0,0 0,1 0,1 0,1 0,1 0,1 1,1 1,1 2,1zm6 1l0 -14 2 0 0 2c1,-1 2,-2 3,-2 1,0 2,0 2,1 0,0 1,1 1,2l0 11 -2 0 0 -11c0,0 0,-1 0,-1 -1,0 -1,-1 -1,-1 -1,0 -2,1 -3,2l0 11 -2 0zm14 0c-1,0 -2,0 -2,0 -1,-1 -1,-2 -1,-3l0 -10 -2 0 0 -1 2 0 0 -4 2 0 0 4 2 0 0 1 -2 0 0 10c0,1 0,1 0,2 0,0 1,0 1,0 0,0 1,0 1,0l0 1c0,0 -1,0 -1,0zm7 1c-2,0 -3,-1 -3,-2 -1,-1 -1,-2 -1,-4l0 -4c0,-1 0,-2 0,-3 1,-1 1,-1 2,-2 0,0 1,0 2,0 0,0 1,0 1,0 1,0 1,1 1,1 1,0 1,1 1,1 0,1 0,1 0,2 0,0 0,1 0,2l0 1 -5 0 0 2c0,2 0,3 0,3 0,1 1,1 2,1 0,0 1,0 1,0 0,-1 1,-2 1,-3l0 -1 1 0 0 1c0,2 0,3 0,3 -1,1 -2,2 -3,2zm-2 -9l4 0 0 -1c0,-1 0,-1 0,-1 0,-1 0,-1 -1,-1 0,-1 0,-1 0,-1 0,0 0,0 0,-1 -1,0 -1,0 -1,0 -1,0 -2,1 -2,1 0,1 0,2 0,3l0 1zm18 9c-1,0 -2,-1 -2,-1 -1,0 -1,0 -2,-1 0,0 0,0 -1,-1 0,-1 0,-1 0,-2 0,0 0,-1 0,-2l0 -8c0,0 0,-1 0,-2 0,0 0,-1 0,-1 1,-1 1,-1 1,-2 1,0 1,0 2,0 0,-1 1,-1 2,-1 1,0 1,0 2,1 1,0 1,0 1,1 1,0 1,1 1,2 0,0 0,1 0,2l0 1 -1 0 0 -1c0,-1 0,-1 0,-2 -1,0 -1,-1 -1,-1 0,0 0,-1 -1,-1 0,0 -1,0 -1,0 -1,0 -1,0 -2,0 0,0 -1,1 -1,1 0,0 0,1 0,1 0,1 0,2 0,2l0 9c0,1 0,2 0,3 1,1 2,1 3,1 0,0 1,0 1,0 0,0 1,0 1,-1 0,0 0,0 0,-1 0,0 1,0 1,-1 0,0 0,-1 0,-1l0 -2 1 0 0 2c0,0 0,1 0,2 0,0 0,1 0,1 0,1 -1,1 -1,1 0,1 -1,1 -1,1 -1,0 -2,1 -2,1zm9 0c0,0 -1,-1 -2,-1 0,-1 0,-2 0,-3 0,0 0,-1 0,-1 0,0 0,-1 0,-1 0,0 1,-1 1,-1 0,0 0,0 1,-1 0,0 1,0 1,0 1,-1 1,-1 2,-1l0 -1c0,-2 0,-2 0,-3 0,0 -1,-1 -2,-1 -1,0 -1,1 -1,3l0 0 -2 0c0,0 0,0 0,0 0,-2 0,-3 1,-3 0,-1 1,-1 3,-1 1,0 2,0 2,1 1,1 1,2 1,4l0 7c0,1 0,2 0,2l-1 0 -1 -2c0,1 0,1 -1,2 0,0 -1,1 -2,1zm1 -2c0,0 1,0 1,0 1,-1 1,-1 1,-2l0 -4c0,0 0,0 0,0 0,0 -1,0 -1,1 0,0 0,0 -1,0 0,0 0,0 0,0 0,0 -1,1 -1,1 0,0 0,0 0,0 0,0 0,1 0,1 -1,0 -1,0 -1,0 0,0 0,1 0,1 0,1 1,1 1,1 0,1 1,1 1,1zm8 1l0 -13 -2 0 0 -1 2 0 0 -1c0,-1 0,-1 0,-1 0,-1 0,-1 0,-1 0,0 0,-1 0,-1 0,0 0,0 0,0 1,-1 1,-1 1,-1 0,0 1,0 1,0 1,0 1,0 2,0l0 2c-1,0 -1,0 -1,0 -1,0 -1,0 -1,0 -1,0 -1,1 -1,2l0 1 3 0 0 1 -3 0 0 13 -1 0zm8 -15l2 -5 2 0 -3 5 -1 0zm1 16c-2,0 -3,-1 -3,-2 -1,-1 -1,-2 -1,-4l0 -4c0,-1 0,-2 0,-3 1,-1 1,-1 2,-2 0,0 1,0 2,0 0,0 1,0 1,0 1,0 1,1 1,1 1,0 1,1 1,1 0,1 0,1 0,2 0,0 0,1 0,2l0 1 -5 0 0 2c0,2 0,3 0,3 0,1 1,1 2,1 0,0 1,0 1,0 1,-1 1,-2 1,-3l0 -1 1 0 0 1c0,2 0,3 0,3 -1,1 -2,2 -3,2zm-2 -9l4 0 0 -1c0,-1 0,-1 0,-1 0,-1 0,-1 -1,-1 0,-1 0,-1 0,-1 0,0 0,0 0,-1 -1,0 -1,0 -1,0 -1,0 -2,1 -2,1 0,1 0,2 0,3l0 1z"/>
  </g>
 </g>
</svg>
